<svg width="1178" height="435" viewBox="0 0 1178 435" fill="none" xmlns="http://www.w3.org/2000/svg">
<rect width="1178" height="435" fill="white"/>
<path d="M515.82 298.12C512.593 293.573 509.33 289.063 506.03 284.59C502.73 280.117 499.467 275.68 496.24 271.28L483.81 254.23H475.56V232.45H484.36L495.25 216.83C498.623 212.137 501.96 207.407 505.26 202.64C508.633 197.8 511.97 193.033 515.27 188.34H553.44C548.16 195.013 542.917 201.613 537.71 208.14C532.503 214.667 527.297 221.23 522.09 227.83L506.58 247.19L505.15 232.67L524.29 258.08C529.643 264.753 534.96 271.463 540.24 278.21C545.52 284.883 550.8 291.52 556.08 298.12H515.82ZM445.53 298.12C445.53 290.273 445.53 282.683 445.53 275.35C445.53 267.943 445.53 259.693 445.53 250.6V189.55C445.53 180.603 445.53 171.767 445.53 163.04C445.53 154.313 445.53 145.587 445.53 136.86L478.42 134C478.42 142.653 478.42 151.563 478.42 160.73C478.42 169.823 478.42 179.43 478.42 189.55V256.98C478.42 264.387 478.42 271.353 478.42 277.88C478.42 284.333 478.42 291.08 478.42 298.12H445.53Z" fill="#4D353F"/>
<path d="M614.672 300.98C600.519 300.98 588.932 298.487 579.912 293.5C570.966 288.513 564.366 281.657 560.112 272.93C555.932 264.203 553.842 254.193 553.842 242.9C553.842 231.607 555.822 221.633 559.782 212.98C563.742 204.327 569.646 197.58 577.492 192.74C585.412 187.827 595.239 185.37 606.972 185.37C616.946 185.37 625.489 187.167 632.602 190.76C639.716 194.28 645.179 199.633 648.992 206.82C652.806 214.007 654.712 223.063 654.712 233.99C654.712 236.923 654.639 239.527 654.492 241.8C654.346 244.073 654.089 246.347 653.722 248.62L625.562 237.95C625.709 236.997 625.819 236.007 625.892 234.98C625.966 233.953 626.002 233 626.002 232.12C626.002 224.713 624.242 218.92 620.722 214.74C617.276 210.487 612.802 208.36 607.302 208.36C603.122 208.36 599.419 209.607 596.192 212.1C592.966 214.52 590.436 217.93 588.602 222.33C586.769 226.73 585.852 231.973 585.852 238.06V243.45C585.852 249.83 586.989 255.293 589.262 259.84C591.609 264.387 595.202 267.87 600.042 270.29C604.882 272.71 611.079 273.92 618.632 273.92C621.566 273.92 624.939 273.663 628.752 273.15C632.639 272.563 636.562 271.72 640.522 270.62C644.556 269.447 648.296 267.98 651.742 266.22L652.842 293.94C649.982 295.26 646.646 296.47 642.832 297.57C639.092 298.597 634.839 299.403 630.072 299.99C625.306 300.65 620.172 300.98 614.672 300.98ZM566.492 248.62V231.02L634.582 229.59L653.722 234.98V248.62H566.492Z" fill="#4D353F"/>
<path d="M668.873 298.12C668.873 290.273 668.873 282.683 668.873 275.35C668.873 267.943 668.873 259.693 668.873 250.6V239.6C668.873 231.167 668.873 222.697 668.873 214.19C668.873 205.683 668.873 197.067 668.873 188.34L696.483 186.69L697.913 205.83H700.663C703.156 202.237 706.163 198.9 709.683 195.82C713.203 192.667 717.236 190.137 721.783 188.23C726.403 186.323 731.646 185.37 737.513 185.37C748.513 185.37 756.836 188.633 762.483 195.16C768.13 201.613 770.953 211.293 770.953 224.2C770.953 229.04 770.953 233.55 770.953 237.73C770.953 241.837 770.953 246.127 770.953 250.6C770.953 259.547 770.953 267.76 770.953 275.24C770.953 282.647 770.953 290.273 770.953 298.12H738.173C738.173 290.273 738.173 282.683 738.173 275.35C738.173 268.017 738.173 260.353 738.173 252.36V234.76C738.173 228.307 737.11 223.467 734.983 220.24C732.856 216.94 729.043 215.29 723.543 215.29C720.39 215.29 717.493 215.95 714.853 217.27C712.213 218.517 709.793 220.24 707.593 222.44C705.393 224.567 703.45 226.95 701.763 229.59V252.36C701.763 260.573 701.763 268.31 701.763 275.57C701.763 282.757 701.763 290.273 701.763 298.12H668.873Z" fill="#4D353F"/>
<path d="M825.321 300.98C819.894 300.98 814.724 300.65 809.811 299.99C804.897 299.403 800.387 298.56 796.281 297.46C792.174 296.287 788.581 294.967 785.501 293.5L787.591 265.67C790.817 267.65 794.411 269.41 798.371 270.95C802.404 272.417 806.511 273.553 810.691 274.36C814.944 275.167 819.087 275.57 823.121 275.57C826.054 275.57 828.694 275.313 831.041 274.8C833.387 274.213 835.221 273.223 836.54 271.83C837.86 270.363 838.521 268.2 838.521 265.34C838.521 263.287 837.787 261.6 836.321 260.28C834.927 258.96 832.544 257.75 829.171 256.65C825.871 255.477 821.324 254.157 815.531 252.69C809.004 251.003 803.504 248.877 799.031 246.31C794.557 243.67 791.184 240.297 788.911 236.19C786.637 232.083 785.501 226.84 785.501 220.46C785.501 209.387 789.094 200.807 796.281 194.72C803.541 188.56 813.404 185.48 825.871 185.48C831.297 185.48 836.504 185.847 841.491 186.58C846.477 187.313 850.987 188.303 855.021 189.55C859.127 190.723 862.574 191.933 865.361 193.18L863.161 221.23C859.787 219.103 856.121 217.343 852.161 215.95C848.201 214.483 844.387 213.383 840.721 212.65C837.127 211.917 834.157 211.55 831.811 211.55C829.464 211.55 827.301 211.88 825.321 212.54C823.414 213.127 821.911 214.117 820.811 215.51C819.711 216.903 819.161 218.737 819.161 221.01C819.161 222.917 819.637 224.603 820.591 226.07C821.544 227.463 823.341 228.783 825.98 230.03C828.621 231.203 832.471 232.487 837.531 233.88C845.451 236.007 851.941 238.317 857.001 240.81C862.061 243.23 865.801 246.347 868.221 250.16C870.714 253.973 871.961 259.033 871.961 265.34C871.961 272.38 870.347 278.613 867.121 284.04C863.967 289.393 858.944 293.573 852.051 296.58C845.231 299.513 836.321 300.98 825.321 300.98Z" fill="#4D353F"/>
<path d="M938.031 301.09C928.058 301.09 919.368 299.513 911.961 296.36C904.628 293.207 898.541 288.917 893.701 283.49C888.934 278.063 885.341 271.867 882.921 264.9C880.574 257.86 879.401 250.527 879.401 242.9C879.401 231.973 881.601 222.183 886.001 213.53C890.474 204.803 897.001 197.947 905.581 192.96C914.234 187.9 924.831 185.37 937.371 185.37C947.051 185.37 955.521 186.837 962.781 189.77C970.114 192.63 976.201 196.7 981.041 201.98C985.954 207.187 989.621 213.31 992.041 220.35C994.461 227.317 995.671 234.833 995.671 242.9C995.671 253.973 993.434 263.91 988.961 272.71C984.488 281.437 977.961 288.367 969.381 293.5C960.801 298.56 950.351 301.09 938.031 301.09ZM937.921 274.25C943.421 274.25 947.931 272.783 951.451 269.85C955.044 266.843 957.721 262.957 959.481 258.19C961.314 253.423 962.231 248.327 962.231 242.9C962.231 236.447 961.204 230.947 959.151 226.4C957.098 221.78 954.238 218.26 950.571 215.84C946.904 213.42 942.651 212.21 937.811 212.21C932.384 212.21 927.801 213.567 924.061 216.28C920.394 218.993 917.608 222.66 915.701 227.28C913.868 231.9 912.951 237.107 912.951 242.9C912.951 248.327 913.868 253.423 915.701 258.19C917.608 262.957 920.394 266.843 924.061 269.85C927.801 272.783 932.421 274.25 937.921 274.25Z" fill="#4D353F"/>
<path fill-rule="evenodd" clip-rule="evenodd" d="M266.224 102.159C270.112 101.54 276.299 102.813 279.815 104.548C287.529 108.347 298.261 112.69 306.874 113.207C322.365 114.136 329.51 116.217 338.045 130.074C343.277 138.57 352.868 145.925 361.131 151.646C374.12 160.636 370.804 175.093 374.388 188.337C375.33 191.74 376.484 195.08 377.851 198.336C380.111 203.632 383.126 208.794 383.826 214.53C384.195 217.629 383.976 220.77 383.184 223.787C382.334 227.041 380.34 231.13 378.868 234.313C376.468 239.513 375.411 243.234 373.976 248.651C371.491 258.022 373.165 268.287 367.593 276.492C362.449 284.062 353.767 287.455 347.44 294.101C344.909 296.679 341.906 299.584 339.797 302.49C334.719 309.473 331.321 316.254 322.597 319.33C317.384 321.164 313.643 321.095 308.225 321.678C304.441 322.061 300.694 322.729 297.012 323.676C287.614 326.12 278.945 332.042 270.982 332.825C259.616 334.659 242.843 321.488 229.701 321.74C222.781 321.874 212.887 319.994 207.625 315.49C201.865 310.561 198.063 302.712 192.676 297.223C187.686 291.6 181.65 287.483 175.578 283.13C162.712 273.905 166.019 258.518 162.223 245.093C161.308 241.915 160.186 238.8 158.865 235.768C155.07 227.247 151.235 220.997 153.871 211.155C155.023 206.857 157.051 203.223 158.867 199.203C160.561 195.412 161.911 191.476 162.904 187.444C165.306 177.497 163.905 166.458 169.798 157.952C175.642 150.689 183.092 146.982 190.153 140.465C198.774 132.507 203.189 119.631 214.475 115.629C222.679 113.365 230.433 113.467 238.947 111.6C248.328 109.543 257.257 103.041 266.224 102.159ZM294.22 285.365C285.564 282.07 273.258 280.746 263.952 281.349C256.804 281.972 247.908 282.82 241.442 286.043C237.203 288.156 238.124 293.964 239.729 297.501C245.28 309.742 256.173 325.998 271.597 323.693C272.27 323.588 272.938 323.46 273.602 323.306C284.308 319.89 290.138 310.967 295.249 301.55C297.894 296.673 301.541 288.903 294.22 285.365ZM229.477 304.325C225.021 300.816 212.753 293.162 207.192 293.615C206.523 294.295 205.641 295.071 205.692 296.109C205.982 301.976 211.073 308.114 216.06 310.81C220.377 313.149 226.747 312.867 231.393 311.776C235.268 309.264 231.955 306.274 229.477 304.325ZM328.793 293.61C328.394 293.584 327.907 293.619 327.505 293.649C322.331 295.464 303.226 303.781 303.866 310.02C304.736 311.812 306.005 311.946 307.862 312.231C314.081 312.962 318.584 312.726 323.914 308.864C326.779 306.794 333.276 298.091 330.739 294.658C330.278 294.039 329.565 293.656 328.793 293.61ZM204.182 236.363C200.841 232.412 196.85 227.191 191.243 227.517C188.402 228.466 187.02 229.672 185.298 232.1C166.489 258.615 169.326 282.285 206.118 282.82C213.249 282.533 220.503 283.494 222.953 275.224C220.21 260.844 213.736 247.441 204.182 236.363ZM343.97 227.573C332.656 229.441 314.291 262.928 314.373 274.733C314.435 283.667 326.904 282.847 333.215 282.73C342.057 282.208 352.318 280.907 358.515 273.911C368.907 262.176 360.127 244.5 352.629 233.613C349.925 229.69 348.751 227.963 343.97 227.573ZM229.905 255.87C229.068 256.754 228.473 257.068 228.535 258.379C228.688 261.633 229.356 264.848 230.193 267.983C233.551 280.564 241.749 276.742 250.551 273.699C252.809 272.86 254.67 272.636 254.386 269.886C251.696 267.215 235.94 259.134 231.758 256.264C231.334 255.973 230.451 255.895 229.905 255.87ZM305.57 255.955C302.335 257.946 283.588 268.641 282.696 269.877C282.536 273.072 285.707 273.467 288.248 274.352C302.466 279.07 305.416 276.761 307.99 262.084C308.454 259.446 309.647 255.811 305.57 255.955ZM311.688 212.382C308.859 188.51 287.261 171.446 263.425 174.252C239.55 177.062 222.48 198.742 225.314 222.654C228.148 246.565 249.811 263.639 273.677 260.772C297.506 257.91 314.517 236.254 311.688 212.382ZM173.179 203.999C172.644 201.967 171.133 201.735 169.283 201.875C159.362 211.271 158.986 222.762 168.585 232.61C169.651 233.291 169.688 233.339 170.913 233.328C173.332 232.446 173.957 229.145 174.247 226.757C175.151 219.322 175.093 211.268 173.179 203.999ZM375.323 215.68C374.633 211.149 370.778 201.194 365.101 201.954C360.504 207.442 360.674 242.729 369.925 230.903C373.234 226.549 376.183 221.329 375.323 215.68ZM213.485 202.799C207.434 207.97 196.166 215.235 204.33 224.064C205.614 225.453 207.24 226.815 208.679 228.062C210.61 229.812 213.056 232.889 215.77 231.694C217.094 229.958 216.545 219.339 216.56 216.325C216.577 212.849 216.873 207.541 216.48 204.195C215.526 202.745 215.274 202.831 213.485 202.799ZM321.488 202.795C319.526 204.968 320.556 213.905 320.501 217.383C320.452 220.502 319.984 229.002 320.909 231.524C323.98 233.139 327.332 229.009 329.562 226.953C335.196 222.043 338.215 217.207 332.273 210.508C330.174 208.142 324.533 202.815 321.488 202.795ZM217.606 177.222C225.051 159.114 226.963 150.957 203.671 152.284C170.503 153.939 166.569 175.504 183.691 200.434C186.08 203.913 188.493 207.478 193.156 207.446C201.595 205.856 214.344 185.154 217.606 177.222ZM355.811 158.643C348.957 153.058 333.758 151.085 325.03 152.604C319.805 153.025 312.947 154.335 314.383 161.618C317.614 178 327.045 194 339.255 205.278C342.505 208.265 346.851 208.071 349.98 204.998C359.49 193.005 370.997 171.015 355.811 158.643ZM297.133 158.128C294.598 158.633 284.641 161.013 283.124 163.303C282.794 163.803 282.905 164.023 282.892 164.68C284.037 167.361 295.285 172.796 298.565 174.71C300.321 175.834 305.017 179.273 306.819 179.042C309.497 177.286 307.865 172.002 307.351 169.386C306.161 163.327 304.144 158.489 297.133 158.128ZM248.932 160.675C245.061 159.451 241.39 157.964 237.291 158.41C234.601 159.441 231.996 161.297 231.159 164.133C230.208 167.355 226.356 177.564 230.484 179.021C232.951 178.733 238.234 174.922 240.557 173.458C243.328 171.915 253.141 166.971 254.3 165.047C254.533 162.301 251.131 161.371 248.932 160.675ZM298.637 141.87C294.749 128.59 281.698 109.059 265.826 111.286C258.123 112.458 251.781 117.791 247.586 123.912C233.646 144.249 234.259 151.123 260.303 153.349C264.075 153.672 268.624 153.762 272.62 153.742C278.566 153.218 301.6 151.981 298.637 141.87ZM329.598 133.262C325.959 125.995 319.265 121.736 311.037 122.475C308.846 122.665 302.777 123.112 303.931 126.28C306.008 131.97 320.164 138.992 325.138 140.7C326.491 141.19 328.195 142.023 329.559 141.284C332.541 139.668 330.726 135.517 329.598 133.262ZM233.051 124.795C231.4 122.08 225.592 122.297 222.685 122.44C217.034 123.158 213.367 125.014 209.582 129.781C207.353 132.588 201.492 142.688 210.419 141.193C211.52 141.009 213.99 139.843 215.108 139.368C219.361 137.521 234.103 130.06 233.051 124.795Z" fill="url(#paint0_radial_2013_54)"/>
<defs>
<radialGradient id="paint0_radial_2013_54" cx="0" cy="0" r="1" gradientUnits="userSpaceOnUse" gradientTransform="translate(188 135.5) rotate(46.9092) scale(233.475)">
<stop stop-color="#DA4453"/>
<stop offset="1" stop-color="#89216B"/>
</radialGradient>
</defs>
</svg>
